<?xml version="1.0" encoding="UTF-8" standalone="no"?>
<svg width="156px" height="156px" viewBox="0 0 156 156" version="1.1" xmlns="http://www.w3.org/2000/svg" xmlns:xlink="http://www.w3.org/1999/xlink" xmlns:sketch="http://www.bohemiancoding.com/sketch/ns">
    <!-- Generator: Sketch 3.1.1 (8761) - http://www.bohemiancoding.com/sketch -->
    <title>Oval 3 + Start</title>
    <desc>Created with Sketch.</desc>
    <defs>
        <filter x="-50%" y="-50%" width="200%" height="200%" filterUnits="objectBoundingBox" id="filter-1">
            <feOffset dx="-1" dy="2" in="SourceAlpha" result="shadowOffsetOuter1"></feOffset>
            <feGaussianBlur stdDeviation="1" in="shadowOffsetOuter1" result="shadowBlurOuter1"></feGaussianBlur>
            <feColorMatrix values="0 0 0 0 0   0 0 0 0 0   0 0 0 0 0  0 0 0 0.35 0" in="shadowBlurOuter1" type="matrix" result="shadowMatrixOuter1"></feColorMatrix>
            <feMerge>
                <feMergeNode in="shadowMatrixOuter1"></feMergeNode>
                <feMergeNode in="SourceGraphic"></feMergeNode>
            </feMerge>
        </filter>
    </defs>
    <g id="Welcome" stroke="none" stroke-width="1" fill="none" fill-rule="evenodd" sketch:type="MSPage">
        <g id="Mobile-Portrait-Start" sketch:type="MSArtboardGroup" transform="translate(-84.000000, -239.000000)">
            <g id="Oval-3-+-Start" sketch:type="MSLayerGroup" transform="translate(88.000000, 240.000000)">
                <circle id="Oval-3" stroke="#979797" fill="#FFFFFF" filter="url(#filter-1)" sketch:type="MSShapeGroup" cx="75" cy="75" r="75"></circle>
                <path d="M30.782,75.208 L30.242,78.232 C29.27,83.632 35.678,85.432 39.566,85.432 C45.758,85.432 51.266,82.588 51.266,76.576 C51.266,68.62 40.538,69.844 40.538,66.892 C40.538,66.064 41.222,65.38 43.166,65.38 C44.426,65.38 45.506,65.56 45.326,66.532 L45.002,68.152 L51.878,68.152 L52.634,64.444 C53.642,59.548 47.27,58.684 44.066,58.684 C38.234,58.684 32.798,61.096 32.798,67.216 C32.798,75.028 43.49,74.416 43.49,76.756 C43.49,77.692 42.698,78.736 40.574,78.736 C38.99,78.736 37.046,78.448 37.37,76.864 L37.694,75.208 L30.782,75.208 Z M56.814,71.644 L55.626,77.548 C55.518,78.052 55.41,78.556 55.41,79.276 C55.41,83.02 58.758,85.18 63.654,85.18 C64.446,85.18 65.562,85.072 65.562,85.072 L66.714,79.168 C66.714,79.168 66.246,79.24 65.742,79.24 C64.374,79.24 63.15,78.952 63.15,77.908 C63.15,77.62 63.222,77.116 63.294,76.756 L64.266,71.644 L67.974,71.644 L68.982,66.316 L65.274,66.316 L66.246,61.312 L59.082,61.312 L58.11,66.316 L55.554,66.316 L54.546,71.644 L56.814,71.644 Z M68.698,80.608 C68.698,83.668 71.218,85.324 73.846,85.324 C77.446,85.324 79.606,82.3 79.606,82.3 L79.678,82.3 C80.614,85.468 83.422,85.108 85.258,85.108 C87.562,85.108 87.922,85 87.922,85 L88.966,79.636 C88.966,79.636 88.534,79.672 88.354,79.672 C87.31,79.672 87.058,79.132 87.058,78.52 C87.058,76.828 88.138,74.02 88.138,71.824 C88.138,66.964 83.386,65.884 80.398,65.884 C76.186,65.884 71.974,68.008 71.974,68.008 L73.414,73.336 C73.414,73.336 76.618,71.644 78.886,71.644 C79.606,71.644 80.722,71.788 80.722,72.58 C80.722,73.048 80.542,73.696 80.542,73.696 C75.934,73.696 68.698,75.28 68.698,80.608 L68.698,80.608 Z M75.898,79.276 C75.898,77.44 78.526,77.044 79.318,77.044 L79.894,77.044 L79.714,77.692 C79.246,79.276 78.13,80.428 77.014,80.428 C76.51,80.428 75.898,80.104 75.898,79.276 L75.898,79.276 Z M91.958,85 L99.482,85 L100.706,78.448 C101.678,73.372 105.278,73.264 106.466,73.264 C107.654,73.264 107.978,73.372 107.978,73.372 L109.418,65.992 C109.418,65.992 109.022,65.956 108.626,65.956 C105.746,65.956 103.298,67.828 102.002,70.42 L101.93,70.42 C102.182,69.664 102.362,68.656 102.362,68.08 C102.362,66.82 101.462,66.316 99.986,66.316 L93.326,66.316 L92.246,71.644 L93.722,71.644 C94.334,71.644 94.442,72.076 94.37,72.436 L91.958,85 Z M112.158,71.644 L110.97,77.548 C110.862,78.052 110.754,78.556 110.754,79.276 C110.754,83.02 114.102,85.18 118.998,85.18 C119.79,85.18 120.906,85.072 120.906,85.072 L122.058,79.168 C122.058,79.168 121.59,79.24 121.086,79.24 C119.718,79.24 118.494,78.952 118.494,77.908 C118.494,77.62 118.566,77.116 118.638,76.756 L119.61,71.644 L123.318,71.644 L124.326,66.316 L120.618,66.316 L121.59,61.312 L114.426,61.312 L113.454,66.316 L110.898,66.316 L109.89,71.644 L112.158,71.644 Z" id="Start" fill="#555555" sketch:type="MSShapeGroup"></path>
            </g>
        </g>
    </g>
</svg>